<svg width="55" height="16" viewBox="0 0 55 16" fill="none" xmlns="http://www.w3.org/2000/svg">
<path d="M0.28 0.76H6.1C7.67333 0.76 9.02667 1.04667 10.16 1.62C11.3067 2.18 12.18 2.99333 12.78 4.06C13.3933 5.12667 13.7 6.39333 13.7 7.86C13.7 9.34 13.4 10.62 12.8 11.7C12.2 12.7667 11.3267 13.5867 10.18 14.16C9.04667 14.72 7.68667 15 6.1 15H0.28V0.76ZM5.84 12C7.22667 12 8.26 11.66 8.94 10.98C9.63333 10.2867 9.98 9.24667 9.98 7.86C9.98 5.12667 8.6 3.76 5.84 3.76H4.04V12H5.84ZM25.925 4.84V15H22.385V13.64C21.7317 14.6533 20.765 15.16 19.485 15.16C18.1917 15.16 17.225 14.8 16.585 14.08C15.9583 13.36 15.645 12.26 15.645 10.78V4.84H19.265V10.88C19.265 11.88 19.6983 12.38 20.565 12.38C21.0717 12.38 21.4783 12.2 21.785 11.84C22.105 11.48 22.265 11 22.265 10.4V4.84H25.925ZM39.5478 15H35.1678L31.7078 10.62V15H28.0878V0.279999H31.7078V9.08L35.1078 4.86H39.3878L35.3878 9.72L39.5478 15ZM49.3428 10.28H42.9628C43.0295 11.0667 43.2561 11.6333 43.6428 11.98C44.0295 12.3267 44.5961 12.5 45.3428 12.5C45.8495 12.5 46.3561 12.42 46.8628 12.26C47.3695 12.0867 47.8295 11.8533 48.2428 11.56L49.1628 13.96C48.6561 14.3333 48.0428 14.6267 47.3228 14.84C46.6028 15.0533 45.8828 15.16 45.1628 15.16C44.0028 15.16 42.9961 14.9467 42.1428 14.52C41.2895 14.0933 40.6361 13.4867 40.1828 12.7C39.7295 11.9 39.5028 10.96 39.5028 9.88C39.5028 8.85333 39.7161 7.94 40.1428 7.14C40.5828 6.32667 41.1828 5.69333 41.9428 5.24C42.7161 4.78667 43.5961 4.56 44.5828 4.56C45.5428 4.56 46.3828 4.77333 47.1028 5.2C47.8228 5.62667 48.3761 6.24 48.7628 7.04C49.1495 7.82667 49.3428 8.74667 49.3428 9.8V10.28ZM44.6828 7.04C43.7895 7.04 43.2295 7.56 43.0028 8.6H46.2428C46.1095 7.56 45.5895 7.04 44.6828 7.04ZM50.7975 11.28H54.5775V15H50.7975V11.28Z" fill="black"/>
</svg>
